<?xml version="1.0" encoding="UTF-8"?>
<svg xmlns="http://www.w3.org/2000/svg" xmlns:xlink="http://www.w3.org/1999/xlink" width="150px" height="150px" viewBox="0 0 64 64" version="1.1">
<g id="surface1">
<path style=" stroke:none;fill-rule:nonzero;fill:rgb(90.196078%,11.372549%,11.372549%);fill-opacity:1;" d="M 51.964844 40.671875 C 51.234375 40.804688 50.496094 40.871094 49.753906 40.871094 C 47.011719 40.871094 43.753906 40.640625 40.605469 37.523438 L 35.566406 32 L 40.605469 26.5 C 42.953125 24.125 46.550781 23.507812 49.554688 24.957031 C 52.5625 26.410156 54.3125 29.613281 53.914062 32.925781 C 53.511719 36.242188 51.050781 38.933594 47.785156 39.628906 C 49.109375 39.847656 50.464844 39.835938 51.785156 39.59375 C 56.660156 38.65625 59.035156 34.28125 59.160156 33.328125 C 59.730469 27.816406 56.761719 22.542969 51.757812 20.164062 C 46.75 17.789062 40.789062 18.824219 36.875 22.75 L 32 28.09375 L 27.125 22.75 C 22.015625 17.640625 13.734375 17.640625 8.625 22.75 C 7.371094 24 6.386719 25.492188 5.730469 27.136719 C 7.296875 25.140625 9.539062 23.785156 12.035156 23.328125 C 15.558594 22.675781 20.34375 23.390625 23.394531 26.476562 L 28.433594 32 L 23.394531 37.5 C 21.042969 39.859375 17.453125 40.464844 14.457031 39.007812 C 11.460938 37.554688 9.714844 34.359375 10.113281 31.054688 C 10.507812 27.746094 12.960938 25.054688 16.214844 24.351562 C 14.890625 24.117188 13.535156 24.128906 12.214844 24.378906 C 8.589844 25.128906 5 29.25 4.859375 30.671875 C 4.300781 36.175781 7.265625 41.4375 12.261719 43.808594 C 17.257812 46.183594 23.210938 45.160156 27.125 41.25 L 32 35.90625 L 36.875 41.25 C 41.984375 46.359375 50.265625 46.359375 55.375 41.25 C 56.628906 40 57.613281 38.507812 58.269531 36.863281 C 56.703125 38.859375 54.460938 40.214844 51.964844 40.671875 Z M 51.964844 40.671875 "/>
</g>
</svg>
