<svg xmlns="http://www.w3.org/2000/svg" data-name="Layer 1" viewBox="0 0 128 128" id="InternetComputer"><path d="M103.93 81.34a24.63 24.63 0 0 1-4.42.4c-5.49 0-12-.46-18.3-6.69L71.13 64l10.08-11a15.62 15.62 0 1 1 14.36 26.26 23.41 23.41 0 0 0 8-.07c9.75-1.88 14.5-10.63 14.75-12.53A26.17 26.17 0 0 0 73.75 45.5L64 56.19 54.25 45.5a26.16 26.16 0 0 0-37 0 25.87 25.87 0 0 0-5.79 8.77 20.76 20.76 0 0 1 12.61-7.61c7.05-1.31 16.62.12 22.72 6.29L56.87 64 46.79 75a15.62 15.62 0 1 1-14.36-26.3 22.22 22.22 0 0 0-8 .06C17.18 50.26 10 58.5 9.72 61.34A26.17 26.17 0 0 0 54.25 82.5L64 71.81l9.75 10.69a26.16 26.16 0 0 0 37 0 25.87 25.87 0 0 0 5.79-8.77 20.76 20.76 0 0 1-12.61 7.61Z" fill="#e61d1d" class="color000000 svgShape"></path></svg>